1.8Hz3min_grf.mot
version=1
nRows=17
nColumns 19
inDegrees=yes
endheader
time	1_ground_force_vx	1_ground_force_vy	1_ground_force_vz	1_ground_force_px	1_ground_force_py	1_ground_force_pz	1_ground_torque_x	1_ground_torque_y	1_ground_torque_z	2_ground_force_vx	2_ground_force_vy	2_ground_force_vz	2_ground_force_px	2_ground_force_py	2_ground_force_pz	2_ground_torque_x	2_ground_torque_y	2_ground_torque_z
            0.005000	          -16.000111	           69.198678	            5.059685	           -0.241008	            0.006308	           -0.425463	            0.033854	           -0.146415	           -0.010706	            0.028695	           31.296517	            2.692686	           -0.185072	            0.005751	           -0.679514	           -0.000281	           -0.306299	           -0.026353
            0.005500	          -17.057126	           72.987395	            4.298983	           -0.238942	            0.006307	           -0.425047	            0.034540	           -0.147797	           -0.008705	           -0.493259	           33.135805	            2.793332	           -0.186581	            0.005747	           -0.680000	            0.004499	           -0.302245	           -0.025479
            0.006000	          -18.067708	           74.792806	            3.621377	           -0.239091	            0.006325	           -0.429447	            0.066488	           -0.275231	           -0.013326	           -1.158482	           35.711681	            2.755882	           -0.186277	            0.005740	           -0.677810	            0.009265	           -0.285599	           -0.022040
            0.006500	          -19.261959	           78.220573	            2.951183	           -0.239594	            0.006317	           -0.427460	            0.029264	           -0.118838	           -0.004484	           -1.873900	           39.208296	            2.674808	           -0.186856	            0.005747	           -0.680284	            0.006188	           -0.129464	           -0.008832
            0.007000	          -20.867609	           80.745162	            2.690851	           -0.239542	            0.006306	           -0.424901	            0.037786	           -0.146211	           -0.004873	           -2.118639	           42.152652	            3.013918	           -0.189180	            0.005737	           -0.679896	            0.004723	           -0.093977	           -0.006719
            0.007500	          -22.566748	           83.813479	            1.745227	           -0.239300	            0.006304	           -0.424437	            0.047756	           -0.177366	           -0.003693	           -2.317214	           45.281493	            3.306736	           -0.190858	            0.005730	           -0.679708	            0.006349	           -0.124061	           -0.009060
            0.008000	          -23.666655	           84.533543	            1.934473	           -0.239138	            0.006313	           -0.426626	            0.051863	           -0.185247	           -0.004239	           -2.424206	           48.964121	            3.319917	           -0.188595	            0.005744	           -0.681319	            0.006191	           -0.125042	           -0.008478
            0.008500	          -24.585924	           85.258361	            1.022722	           -0.239576	            0.006313	           -0.426635	            0.041463	           -0.143784	           -0.001725	           -2.490351	           54.304420	            3.292064	           -0.189630	            0.005746	           -0.682708	            0.012294	           -0.268090	           -0.016252
            0.009000	          -25.091762	           86.342217	            0.478341	           -0.238669	            0.006310	           -0.425876	            0.038909	           -0.133888	           -0.000742	           -3.304805	           59.274052	            3.169359	           -0.193858	            0.005736	           -0.684218	            0.015859	           -0.284442	           -0.015209
            0.009500	          -25.322892	           85.624649	           -0.349589	           -0.239067	            0.006319	           -0.427925	            0.040556	           -0.137133	            0.000560	           -4.587156	           64.058345	            2.905412	           -0.195606	            0.005730	           -0.684500	            0.018181	           -0.253888	           -0.011515
            0.010000	          -26.517937	           87.792325	           -1.437897	           -0.237374	            0.006307	           -0.425116	            0.035576	           -0.117779	            0.001929	           -5.865539	           67.737916	            2.590594	           -0.191813	            0.005732	           -0.681264	            0.016619	           -0.191926	           -0.007340
            0.010500	          -26.888297	           90.141213	           -2.710904	           -0.238707	            0.006296	           -0.422572	            0.033380	           -0.111903	            0.003365	           -7.150549	           73.258802	            2.329275	           -0.193626	            0.005732	           -0.683098	            0.010009	           -0.102546	           -0.003260
            0.011000	          -27.531120	           88.881392	           -3.219137	           -0.238050	            0.006300	           -0.423421	            0.040765	           -0.131604	            0.004766	           -8.426171	           76.200943	            2.246470	           -0.193645	            0.005722	           -0.680062	            0.008850	           -0.080034	           -0.002359
            0.011500	          -27.531854	           89.783703	           -3.444551	           -0.237606	            0.006304	           -0.424464	            0.049351	           -0.160939	            0.006174	           -9.238693	           80.618631	            1.981009	           -0.193870	            0.005725	           -0.681122	            0.020270	           -0.176880	           -0.004346
            0.012000	          -27.074206	           90.325768	           -3.718506	           -0.238378	            0.006297	           -0.422732	            0.031789	           -0.106054	            0.004366	          -10.565756	           84.849146	            2.043608	           -0.195114	            0.005726	           -0.682921	            0.025342	           -0.203513	           -0.004902
            0.012500	          -27.213316	           90.869095	           -4.311972	           -0.236951	            0.006297	           -0.422760	            0.020646	           -0.068938	            0.003271	          -11.471314	           89.082340	            1.777530	           -0.193905	            0.005734	           -0.683795	            0.041722	           -0.324000	           -0.006465
            0.013000	          -26.848834	           91.413698	           -5.181826	           -0.237574	            0.006296	           -0.422449	            0.014110	           -0.048042	            0.002723	          -13.167420	           91.656001	            1.318165	           -0.194188	            0.005728	           -0.682534	            0.036334	           -0.252912	           -0.003637
